<svg width="20" height="20" viewBox="0 0 20 20" fill="none" xmlns="http://www.w3.org/2000/svg">
<g id="Group 75977">
<path id="Rectangle 17724 (Stroke)" fill-rule="evenodd" clip-rule="evenodd" d="M2.5 0.00390625H9.16666C10.5474 0.00390625 11.6667 1.12319 11.6667 2.50391V17.5039C11.6667 18.8846 10.5474 20.0039 9.16666 20.0039H2.5C1.11929 20.0039 0 18.8846 0 17.5039V2.50391C0 1.12319 1.11929 0.00390625 2.5 0.00390625ZM2.5 1.67057C2.03976 1.67057 1.66667 2.04367 1.66667 2.50391V17.5039C1.66667 17.9641 2.03976 18.3372 2.5 18.3372H9.16666C9.6269 18.3372 10 17.9641 10 17.5039V2.50391C10 2.04367 9.6269 1.67057 9.16666 1.67057H2.5Z" fill="#343842"/>
<path id="Ellipse 867" d="M6.66667 1.66927C6.66667 2.12951 6.29357 2.5026 5.83333 2.5026C5.3731 2.5026 5 2.12951 5 1.66927C5 1.20903 5.3731 0.835938 5.83333 0.835938C6.29357 0.835938 6.66667 1.20903 6.66667 1.66927Z" fill="#343842"/>
<g id="Group 75334">
<path id="Ellipse 43" d="M15.0026 13.7552C15.0026 14.6617 14.7338 15.5478 14.2302 16.3016C13.7265 17.0553 13.0107 17.6428 12.1732 17.9897C11.3357 18.3366 10.4142 18.4273 9.52511 18.2505C8.63603 18.0736 7.81936 17.6371 7.17837 16.9961C6.53738 16.3551 6.10086 15.5384 5.92401 14.6494C5.74716 13.7603 5.83792 12.8387 6.18482 12.0012C6.53173 11.1637 7.11918 10.4479 7.87291 9.94431C8.62663 9.44068 9.51277 9.17187 10.4193 9.17188V13.7552H15.0026Z" fill="white"/>
<path id="Ellipse 43 (Stroke)" fill-rule="evenodd" clip-rule="evenodd" d="M16.668 12.0872V13.7539C16.668 14.99 16.3014 16.1984 15.6147 17.2262C14.9279 18.254 13.9518 19.0551 12.8097 19.5282C11.6677 20.0012 10.411 20.125 9.19866 19.8838C7.98627 19.6427 6.87263 19.0474 5.99855 18.1733C5.12448 17.2992 4.52922 16.1856 4.28806 14.9732C4.04691 13.7608 4.17068 12.5042 4.64372 11.3621C5.11677 10.2201 5.91785 9.24398 6.94566 8.55722C7.97346 7.87046 9.18184 7.50391 10.418 7.50391H12.0846V12.0872H16.668ZM14.6875 15.4206C14.5675 15.728 14.4141 16.0231 14.2289 16.3003C13.7252 17.054 13.0094 17.6415 12.1719 17.9884C11.3344 18.3353 10.4129 18.426 9.52381 18.2492C8.63473 18.0723 7.81806 17.6358 7.17706 16.9948C6.53607 16.3538 6.09955 15.5371 5.92271 14.6481C5.74586 13.759 5.83662 12.8374 6.18352 11.9999C6.53042 11.1624 7.11788 10.4466 7.87161 9.943C8.14879 9.7578 8.44388 9.60435 8.7513 9.48434C9.27984 9.27803 9.84484 9.17057 10.418 9.17057V13.7539H15.0013C15.0013 14.327 14.8938 14.892 14.6875 15.4206Z" fill="#343842"/>
<path id="Ellipse 44" d="M12.5 5.83984C13.266 5.83984 14.0246 6.00151 14.7323 6.3156C15.4401 6.62969 16.0831 7.09006 16.6248 7.67043C17.1665 8.25079 17.5961 8.93979 17.8893 9.69807C18.1824 10.4564 18.3333 11.2691 18.3333 12.0898L12.5 12.0898L12.5 5.83984Z" fill="white"/>
<path id="Ellipse 44 (Stroke)" fill-rule="evenodd" clip-rule="evenodd" d="M10.8359 4.17057L12.5026 4.17057C13.5041 4.17057 14.4928 4.38209 15.411 4.78961C16.3289 5.19697 17.1551 5.79061 17.8458 6.53063C18.5363 7.2704 19.0784 8.14252 19.4464 9.09448C19.8144 10.0463 20.0026 11.063 20.0026 12.0872L20.0026 13.7539L10.8359 13.7539L10.8359 4.17057ZM18.1247 10.4206C18.2646 10.9623 18.3359 11.5229 18.3359 12.0872L12.5026 12.0872L12.5026 5.83724C13.0681 5.83724 13.6294 5.92532 14.1693 6.09777C14.3608 6.15895 14.5496 6.23075 14.7349 6.31299C15.4427 6.62709 16.0857 7.08746 16.6274 7.66782C17.1691 8.24819 17.5987 8.93718 17.8919 9.69547C17.9835 9.93233 18.0612 10.1745 18.1247 10.4206Z" fill="#343842"/>
</g>
</g>
</svg>
